<svg xmlns="http://www.w3.org/2000/svg" viewBox="0 0 140 100">
  <!-- Anvil silhouette — flat, bold -->
  <path d="
    M 4,48
    C 14,42 24,38 36,36
    L 36,28
    L 88,28
    L 88,44
    L 80,44
    C 74,52 72,60 71,68
    C 70,74 73,78 80,80
    L 100,80
    L 100,90
    C 100,94 97,96 92,96
    L 82,96
    C 76,96 72,92 68,88
    C 60,96 50,96 42,88
    C 38,92 34,96 28,96
    L 18,96
    C 13,96 10,94 10,90
    L 10,80
    L 30,80
    C 37,78 40,74 39,68
    C 38,60 36,52 30,44
    L 36,44
    L 36,40
    C 24,42 14,46 4,48
    Z" fill="#111"/>

  <!-- Dark transition pixels -->
  <rect x="80" y="32" width="6" height="5" fill="#111" rx="0.4" transform="rotate(-2 83 34)"/>
  <rect x="86" y="38" width="5" height="4.5" fill="#111" rx="0.4" transform="rotate(1 88 40)"/>

  <!-- Green pixels — near -->
  <rect x="82" y="22" width="7" height="6.5" fill="#10b981" rx="0.5" transform="rotate(-3 85 25)"/>
  <rect x="90" y="18" width="7.5" height="7" fill="#10b981" rx="0.5" transform="rotate(2 93 21)"/>
  <rect x="88" y="30" width="6" height="6" fill="#10b981" rx="0.5" transform="rotate(-1 91 33)"/>
  <rect x="78" y="14" width="6" height="6" fill="#10b981" rx="0.5" transform="rotate(-4 81 17)"/>
  <rect x="96" y="34" width="5.5" height="5.5" fill="#10b981" rx="0.5" transform="rotate(2 98 36)"/>

  <!-- Green pixels — mid -->
  <rect x="98" y="22" width="6.5" height="6" fill="#10b981" rx="0.5" transform="rotate(3 101 25)"/>
  <rect x="96" y="10" width="6" height="5.5" fill="#10b981" rx="0.5" transform="rotate(-3 99 12)"/>
  <rect x="104" y="30" width="5" height="5" fill="#0d9668" rx="0.5" transform="rotate(1 106 32)"/>
  <rect x="86" y="6" width="6" height="5.5" fill="#10b981" rx="0.5" transform="rotate(-5 89 8)"/>

  <!-- Green pixels — far -->
  <rect x="108" y="18" width="5" height="5" fill="#10b981" rx="0.5" transform="rotate(4 110 20)"/>
  <rect x="106" y="8" width="4.5" height="4.5" fill="#34d399" rx="0.5" transform="rotate(-3 108 10)"/>
  <rect x="110" y="28" width="4.5" height="4.5" fill="#0d9668" rx="0.5" transform="rotate(2 112 30)"/>

  <!-- Green pixels — farthest -->
  <rect x="116" y="14" width="4" height="4" fill="#10b981" opacity="0.7" rx="0.5" transform="rotate(3 118 16)"/>
  <rect x="114" y="4" width="4" height="4" fill="#34d399" opacity="0.6" rx="0.5" transform="rotate(-4 116 6)"/>
  <rect x="118" y="24" width="3.5" height="3.5" fill="#10b981" opacity="0.5" rx="0.5" transform="rotate(-2 119 25)"/>

  <!-- Tiny particles -->
  <rect x="124" y="10" width="3" height="3" fill="#10b981" opacity="0.35" rx="0.5" transform="rotate(4 125 11)"/>
  <rect x="122" y="20" width="2.5" height="2.5" fill="#34d399" opacity="0.25" rx="0.5"/>
  <rect x="128" y="16" width="2" height="2" fill="#10b981" opacity="0.15" rx="0.5"/>
</svg>
